PathFileType	4	(X/Y/Z)	E:\3-PhD\Data\MocapData\ElaboratedData\009\pre\dynamicElaborations\RunA1\RunA1.trc
DataRate	CameraRate	NumFrames	NumMarkers	Units	OrigDataRate	DataStartFrame
200	200	4	54	mm	200	4.160000e+02
Frame#	Time	FHD			LBHD			RBHD			C7			T10			CLAV			LSHO			LUUPA			LMUPA			LDUPA			LLEP			LMEP			LRAD			LUL			LRFIN			RSHO			RUPA1			RMUPA			RDUPA			RLEP			RMEP			RRAD			RUL			RUFIN			RASI			USACR			LSACR			RSACR			LTHI1			LTHI2			LTHI3			LTHI4			LTIB1			LTIB2			LTIB3			LTIB4			LLMAL			LHEE			LMT1			LMT2			RTHI			RTHI2			RTHI3			RTHI4			RLFC			RTIB1			RTIB2			RTIB3			RTIB4			RLMAL			RHEE			RMT1			RMT2			RMT5		
		X1	Y1	Z1	X2	Y2	Z2	X3	Y3	Z3	X4	Y4	Z4	X5	Y5	Z5	X6	Y6	Z6	X7	Y7	Z7	X8	Y8	Z8	X9	Y9	Z9	X10	Y10	Z10	X11	Y11	Z11	X12	Y12	Z12	X13	Y13	Z13	X14	Y14	Z14	X15	Y15	Z15	X16	Y16	Z16	X17	Y17	Z17	X18	Y18	Z18	X19	Y19	Z19	X20	Y20	Z20	X21	Y21	Z21	X22	Y22	Z22	X23	Y23	Z23	X24	Y24	Z24	X25	Y25	Z25	X26	Y26	Z26	X27	Y27	Z27	X28	Y28	Z28	X29	Y29	Z29	X30	Y30	Z30	X31	Y31	Z31	X32	Y32	Z32	X33	Y33	Z33	X34	Y34	Z34	X35	Y35	Z35	X36	Y36	Z36	X37	Y37	Z37	X38	Y38	Z38	X39	Y39	Z39	X40	Y40	Z40	X41	Y41	Z41	X42	Y42	Z42	X43	Y43	Z43	X44	Y44	Z44	X45	Y45	Z45	X46	Y46	Z46	X47	Y47	Z47	X48	Y48	Z48	X49	Y49	Z49	X50	Y50	Z50	X51	Y51	Z51	X52	Y52	Z52	X53	Y53	Z53	X54	Y54	Z54	

476	2.375000	-1169.218440	1574.746070	371.131745	-1343.234266	1600.378939	277.784051	-1309.842453	1579.073311	397.354778	-1404.303233	1463.558442	316.154810	-1594.291203	1172.668004	282.347162	-1302.946424	1333.084569	306.048625	-1305.818954	1427.556893	186.304741	-1320.548174	1282.642764	47.148270	-1283.877798	1256.051304	55.961202	-1312.183205	1221.556310	16.462969	-1302.787818	1102.906765	-13.177677	-1343.655241	1065.728954	40.893121	-1137.474333	1126.626711	175.105414	-1103.038567	1066.857522	153.007043	-1080.110093	1162.258070	166.280655	-1330.429316	1391.648343	470.622731	-1484.381264	1336.927386	558.011491	-1494.879511	1292.044302	551.190433	-1547.775241	1315.812052	566.542157	-1674.352743	1269.968634	584.539406	-1688.259620	1261.339742	516.285074	-1697.617752	1004.937718	614.867368	-1761.109345	1029.558084	642.563524	-1691.172228	965.039764	681.715163	-1488.794336	954.969764	375.019434	-1641.365058	1093.523237	288.653476	-1655.141225	1065.112313	260.645129	-1653.262324	1063.105106	319.306252	-1661.844653	734.992765	98.344517	-1666.732356	650.226332	106.112664	-1625.697913	633.526830	122.313214	-1716.115135	615.064256	115.206385	-1913.408752	419.588969	185.970521	-1972.869527	472.658464	145.611351	-1966.527839	434.913213	164.268837	-2040.996705	420.882576	204.690603	-2201.531900	455.251477	204.743732	-2218.057772	537.174424	242.393604	-2265.670546	332.423301	312.163461	-2277.450675	321.311235	267.322002	-1462.768321	762.668835	469.355392	-1401.876455	738.613870	468.751227	-1374.849803	755.683766	455.404043	-1382.754714	654.948771	451.911182	-1312.060764	576.053325	431.694297	-1229.715749	379.530753	385.212500	-1282.832319	285.915852	417.059474	-1239.403513	294.543998	399.877543	-1223.917466	252.702769	365.857971	-1262.714175	142.203681	389.078464	-1320.425900	87.353748	338.434122	-1100.798202	141.736270	327.609989	-1098.518514	133.640505	365.870574	-1131.522522	90.258841	410.723248	
477	2.380000	-1138.617742	1575.425910	372.690440	-1312.576866	1600.823095	279.124972	-1279.235204	1579.507247	398.733528	-1373.237909	1464.648833	316.991379	-1563.390739	1174.319906	282.243541	-1272.677447	1333.324641	306.269031	-1273.440999	1426.012784	185.828540	-1296.554799	1281.782404	46.614827	-1261.783355	1252.403278	56.003722	-1292.171085	1220.298541	15.713436	-1289.488838	1101.269343	-14.732840	-1333.209660	1067.021531	38.809424	-1118.658614	1099.643224	170.052385	-1091.531638	1037.296072	145.419533	-1057.747472	1128.954301	161.466836	-1301.036278	1392.013897	471.369879	-1453.114482	1330.193204	559.428694	-1461.845995	1285.154991	552.001195	-1515.389372	1306.016037	568.898863	-1639.728170	1253.811110	587.109862	-1654.197949	1246.045622	518.772070	-1644.488173	987.815817	612.828596	-1709.243251	1007.224309	641.809583	-1633.964981	947.145125	678.506557	-1458.769551	956.703938	376.632907	-1610.832705	1093.749116	287.679090	-1623.929997	1065.263550	259.477791	-1622.698971	1063.248854	318.254655	-1624.686760	732.378272	97.914909	-1627.249528	647.527068	105.021830	-1585.724667	631.803793	120.993046	-1675.643698	610.875875	114.023575	-1870.713975	420.596887	186.633516	-1927.722424	476.339610	145.530538	-1923.290598	438.573700	164.687079	-1998.165857	429.425066	206.004490	-2156.641796	473.059480	206.044452	-2168.755457	556.288655	243.203357	-2225.836768	354.523936	314.656543	-2238.658367	343.704862	270.089315	-1436.788719	759.122811	470.381756	-1376.568846	733.401410	470.469649	-1348.839011	749.825429	457.749828	-1359.358325	649.461632	452.904696	-1289.729166	569.365968	433.345818	-1207.998931	372.394370	387.509945	-1262.289088	279.156686	418.145379	-1218.518878	287.507582	401.779177	-1202.418740	245.647272	367.998173	-1242.644347	135.449541	390.230516	-1299.740866	81.740104	337.777508	-1079.422861	132.881961	331.330147	-1077.965694	124.438103	369.369264	-1112.493013	81.585092	413.662125	
478	2.385000	-1108.176621	1575.804520	374.081898	-1282.081216	1601.119679	280.322809	-1248.793312	1579.772099	399.979912	-1342.511551	1465.448828	317.677766	-1532.398355	1175.439383	282.037516	-1242.500232	1333.441020	306.528736	-1241.630038	1424.250225	185.233392	-1272.602184	1280.812190	46.238290	-1239.815619	1248.885842	56.368910	-1272.000134	1219.019491	15.435240	-1275.849120	1100.080423	-15.919065	-1321.999501	1068.895149	37.135914	-1101.807335	1072.128482	163.861778	-1082.352022	1008.148704	136.551962	-1038.093556	1094.747597	155.217757	-1271.962189	1392.315149	471.965242	-1421.639867	1323.103645	560.658368	-1428.443741	1277.972618	552.690375	-1482.543361	1295.733704	571.017993	-1604.127568	1236.818968	589.480788	-1619.183237	1229.837075	521.072300	-1589.481001	971.236545	610.289325	-1655.123384	985.066155	640.437597	-1574.751085	930.212444	674.843909	-1428.644401	958.116705	378.344725	-1580.087495	1093.532061	286.698482	-1592.591470	1064.971461	258.329030	-1592.008754	1063.006243	317.199229	-1587.260996	729.405076	97.558380	-1587.329613	644.506991	104.043485	-1545.323581	629.821442	119.768423	-1634.662900	606.336215	112.914741	-1826.815069	421.474523	187.035163	-1881.361183	479.717192	145.354912	-1878.732875	441.979917	164.896200	-1953.719063	437.448196	206.952994	-2109.657484	489.797367	207.010349	-2117.749662	573.959120	244.028907	-2183.517666	374.943779	315.981993	-2197.170375	364.632925	271.641461	-1410.809336	755.787722	471.315850	-1351.314157	728.485966	471.989047	-1322.937649	744.293490	459.906716	-1335.963407	644.338397	453.713008	-1267.535824	562.947685	434.893405	-1187.852133	364.885017	389.451801	-1243.862346	272.467472	419.024677	-1199.789675	280.215603	403.345387	-1183.508739	238.246801	369.764802	-1225.872694	128.811022	391.228675	-1282.796294	76.491242	337.143317	-1061.580258	123.192118	334.407415	-1060.961709	114.629727	372.374552	-1097.098279	72.780735	416.358339	
479	2.390000	-1077.906458	1575.920068	375.298366	-1251.759355	1601.314406	281.381749	-1218.523782	1579.910417	401.096298	-1312.141539	1465.941585	318.228795	-1501.307983	1175.985357	281.732860	-1212.404108	1333.469139	306.856601	-1210.444503	1422.342284	184.531956	-1248.656154	1279.702374	46.003345	-1217.866996	1245.529977	56.997331	-1251.576323	1217.670036	15.591710	-1261.720251	1099.293871	-16.762787	-1309.826928	1071.217943	35.897042	-1087.083965	1044.531998	156.513062	-1075.506461	979.963918	126.468126	-1021.390677	1060.224233	147.536964	-1243.238681	1392.549362	472.416512	-1389.932619	1315.681535	561.676776	-1394.640677	1270.530122	553.238227	-1449.183674	1285.013107	572.869553	-1567.428159	1219.100299	591.598110	-1583.076717	1212.772433	523.131228	-1532.663308	955.512334	607.226503	-1598.731560	963.441198	638.381783	-1513.649704	914.587602	670.715875	-1398.387288	959.172686	380.164342	-1549.122494	1092.910230	285.723207	-1561.123772	1064.258568	257.221174	-1561.185046	1062.419397	316.158591	-1549.490994	726.092705	97.269478	-1546.912439	641.199293	103.179976	-1504.441456	627.619629	118.668076	-1593.103154	601.481700	111.874405	-1781.753309	422.218999	187.144735	-1833.829090	482.778744	145.052556	-1832.897402	445.107903	164.875510	-1907.764930	444.887570	207.505107	-2060.775097	505.315321	207.622293	-2065.317991	590.091607	244.839456	-2138.912231	393.495095	316.142790	-2153.148719	383.862031	271.971080	-1384.808808	752.616467	472.197457	-1326.094018	723.800414	473.333375	-1297.123395	739.005285	461.887243	-1312.586589	639.492767	454.404769	-1245.514280	556.670152	436.376434	-1169.209902	356.990720	390.997648	-1227.393627	265.799188	419.678038	-1183.071807	272.662337	404.533244	-1167.058707	230.510204	371.077318	-1212.132743	122.286372	392.006335	-1269.331597	71.513220	336.586735	-1047.084635	112.963303	336.599264	-1047.269926	104.534028	374.654762	-1084.982415	64.150785	418.663144	
